<!--
 moonlighter.ml
 by Lukasz Jablonski [e-eightyseven.com]
-->

<?xml version="1.0" encoding="UTF-8" standalone="no"?>
<svg
   xmlns:dc="http://purl.org/dc/elements/1.1/"
   xmlns:cc="http://creativecommons.org/ns#"
   xmlns:rdf="http://www.w3.org/1999/02/22-rdf-syntax-ns#"
   xmlns:svg="http://www.w3.org/2000/svg"
   xmlns="http://www.w3.org/2000/svg"
   version="1.1"
   viewBox="0 0 200 200"
   height="200"
   width="200">
  <metadata>
    <rdf:RDF>
      <cc:Work
         rdf:about="">
        <dc:format>image/svg+xml</dc:format>
        <dc:type
           rdf:resource="http://purl.org/dc/dcmitype/StillImage" />
        <dc:title></dc:title>
      </cc:Work>
    </rdf:RDF>
  </metadata>
  <path
     id="logo"
     d="m 103.67547,8.4102948 c -1.00089,-0.008 -2.00324,-3.3e-4 -3.00586,0.0215 -5.229882,0.11367 -10.476741,0.6557 -15.693357,1.5878902 -31.490577,4.66789 -58.073487,24.37963 -72.25,51.58399 -10.9563506,19.71724 -15.0435514,42.466505 -11.460937,64.349595 0.3609445,2.20475 0.3798359,8.62279 1.3164062,6.58399 l 3.90625,-8.50195 c 3.2576331,-7.0915 1.3496094,-6.99187 1.3496094,-15.17383 0,-52.049015 41.2164064,-94.195305 92.1132814,-94.195305 50.896857,0 92.113277,42.14629 92.113277,94.195305 0,11.27763 -1.94107,22.08722 -5.49023,32.10742 -1.10886,2.81655 -4.07066,6.09016 -2.04102,8.30469 0,0 1.71485,0.6814 2.5293,0.4219 0.98186,-0.3127 2.19336,-2.17776 2.19336,-2.17776 15.75413,-31.14716 14.5542,-67.366145 -6.05664,-97.435545 C 164.73511,23.145135 134.70322,8.6549948 103.67547,8.4103148 Z M 78.070003,45.761855 c -0.232394,-0.006 -0.480541,0.003 -0.74414,0.0254 -1.056356,0.0882 -2.503463,0.46069 -4.341797,1.10156 -1.37777,0.4586 -2.615364,0.91836 -3.716797,1.375 -1.013239,0.46056 -1.911402,0.89702 -2.6875,1.31055 -0.783938,0.41548 -1.173828,0.85195 -1.173828,1.31055 -2.204825,5.41897 -4.156292,10.4509 -5.853516,15.08593 -1.705065,4.64287 -3.105598,8.70874 -4.207031,12.19922 -1.37777,4.0412 -2.528105,7.76375 -3.445312,11.15821 -2.847654,8.08435 -5.00864,15.830115 -6.476563,23.222645 -1.469883,7.39254 -2.847154,14.03454 -4.132812,19.91211 -0.642829,2.94172 -1.360621,5.8553 -2.136719,8.75195 -0.780018,2.89077 -1.581142,5.57745 -2.410156,8.0586 -0.827054,2.4831 -1.604902,4.6616 -2.339844,6.5469 -0.736901,1.8815 -1.378972,3.2858 -1.929688,4.2051 -0.460564,0.9133 -0.939672,1.6989 -1.445312,2.3418 -0.50564,0.6409 -0.988669,0.9628 -1.445313,0.9628 -0.458604,0 -0.964908,-0.4383 -1.515625,-1.3105 -0.550716,-0.8721 -1.053115,-2.1117 -1.511718,-3.7168 -0.458604,-1.6071 -0.803901,-3.5392 -1.033203,-5.7891 -0.227339,-2.2519 -0.252586,-4.7542 -0.06836,-7.50973 0.272418,-3.2161 0.914496,-6.70388 1.927734,-10.47266 1.009321,-3.76682 2.526283,-7.76286 4.544922,-11.98828 0.734942,-1.46792 1.468176,-2.84519 2.205078,-4.13281 0.734944,-1.2837 1.014311,-2.43207 0.828126,-3.44727 -0.09211,-0.27242 -0.272491,-0.59444 -0.548829,-0.96289 -0.274378,-0.27634 -0.642958,-0.53047 -1.101562,-0.75977 -0.458603,-0.22734 -1.056075,-0.431 -1.791016,-0.61718 -3.490482,3.58063 -6.270255,7.25661 -8.33789,11.02539 -2.063716,3.76486 -3.600043,7.21 -4.613282,10.33203 -1.195505,3.67471 -2.023811,7.21296 -2.484375,10.60937 -0.36649,4.4097 -0.36649,8.4794 0,12.1973 0.370411,3.7237 1.220048,6.8933 2.550782,9.5117 1.330735,2.6183 3.169704,4.6164 5.511718,5.9941 2.342013,1.3778 5.304125,2.0178 8.886719,1.9278 3.490483,-0.092 6.328379,-1.5898 8.533203,-4.4825 2.204825,-2.8927 3.99723,-6.4309 5.375,-10.6113 1.377771,-4.1823 2.526146,-8.6089 3.445313,-13.29686 0.917207,-4.68206 1.834739,-8.8624 2.753906,-12.53711 0.550716,-2.29497 1.285911,-5.35412 2.205078,-9.16602 0.917207,-3.80797 1.910448,-7.96699 2.964844,-12.46875 1.056356,-4.49981 2.156213,-9.18838 3.306641,-14.056635 1.148469,-4.87217 2.275521,-9.51027 3.376953,-13.91992 1.101433,-4.40965 2.156683,-8.42504 3.169921,-12.05859 1.009321,-3.62963 1.928806,-6.49861 2.75586,-8.61328 0.182265,1.29153 0.362636,2.69207 0.550781,4.20507 0.180309,1.51496 0.224916,3.18902 0.134766,5.02735 0,2.47725 -0.182337,5.44327 -0.548828,8.88867 -0.370411,3.44541 -0.760301,7.14271 -1.173829,11.09375 -0.413527,3.95105 -0.826707,8.082855 -1.240234,12.400385 -0.413527,4.3195 -0.712258,8.59295 -0.896484,12.81641 -0.364531,8.541 -0.09104,15.75719 0.828125,21.63476 0.917207,5.87953 1.929818,9.83097 3.03125,11.85157 1.105352,2.2068 2.707594,3.3066 4.822265,3.3066 0.550716,0 1.122945,-0.091 1.722657,-0.2754 0.599712,-0.1881 1.311617,-0.4131 2.138671,-0.6914 l 5.511719,-4.2734 c -0.186185,-0.6409 -0.302583,-1.3295 -0.345703,-2.06641 -0.04703,-0.73494 -0.06836,-1.37896 -0.06836,-1.92968 l 0,-1.92774 c 0.184225,-1.93044 0.849565,-4.68693 2.001953,-8.26953 1.148468,-3.58651 2.591663,-7.62519 4.339844,-12.12695 1.740342,-4.4998 3.719003,-9.25236 5.923828,-14.26172 2.204824,-5.00348 4.453056,-9.897675 6.749996,-14.675775 1.37777,-2.93976 2.8288,-5.99499 4.3418,-9.16406 1.51496,-3.16907 3.00863,-6.22234 4.47852,-9.16407 1.46792,-2.93977 2.87043,-5.69626 4.20312,-8.26757 1.33269,-2.57328 2.45975,-4.77691 3.37891,-6.61524 -0.18814,0.7369 -0.34523,1.58459 -0.48242,2.54883 -0.13719,0.96425 -0.29625,2.00012 -0.48047,3.10156 -0.27634,1.37777 -0.96692,4.272 -2.06836,8.68164 -1.10535,4.40965 -2.41474,9.67242 -3.92774,15.7793 -1.51692,6.11079 -3.12504,12.630515 -4.82422,19.566395 -1.7031,6.93785 -3.26073,13.59334 -4.6875,19.98047 -1.42284,6.38713 -2.63715,12.10574 -3.65039,17.15625 -1.013232,5.0505 -1.604827,8.6819 -1.791012,10.8867 -0.186185,2.3891 6.5e-5,4.5694 0.550781,6.5469 0.550716,1.9755 1.425611,3.6729 2.617191,5.1016 1.19159,1.4248 2.66393,2.5305 4.41015,3.3086 1.74622,0.7781 3.76751,1.1212 6.06641,1.0312 2.11075,0 4.27174,-0.3646 6.47656,-1.0996 2.20483,-0.7369 4.45305,-1.8853 6.75195,-3.4473 -1.74425,0.1842 -3.26121,0.047 -4.54687,-0.4121 -1.28958,-0.4625 -2.39138,-1.1725 -3.30859,-2.1367 -0.91916,-0.9682 -1.65437,-2.0932 -2.20508,-3.3769 -0.54876,-1.2877 -0.96195,-2.6184 -1.24024,-3.9962 -0.73686,-3.216 -1.01235,-6.9386 -0.82617,-11.1621 0.27242,-3.76677 0.89318,-8.40684 1.85938,-13.91792 0.96817,-5.51108 2.08933,-11.41398 3.37695,-17.70704 1.28565,-6.2911 2.63573,-12.70224 4.06445,-19.226555 1.42481,-6.52236 2.75552,-12.65414 3.9961,-18.39648 1.24059,-5.74039 2.29583,-10.86348 3.16992,-15.36524 0.87409,-4.4998 1.39779,-7.85571 1.58398,-10.06054 0.18028,-1.83637 0.22888,-3.19037 0.13867,-4.06446 -0.0921,-0.87214 -0.22984,-1.49092 -0.41406,-1.85937 -0.0941,-0.18422 -0.3928,-0.50429 -0.89648,-0.96485 -0.5076,-0.4586 -1.35919,-0.82522 -2.55078,-1.10156 -0.4586,-0.18422 -1.35482,-0.15898 -2.68555,0.0684 -1.33466,0.23126 -2.75652,0.62116 -4.27344,1.17188 -1.51692,0.55071 -2.9427,1.19473 -4.27343,1.92968 -1.32878,0.7369 -2.2735,1.56326 -2.82422,2.48047 -0.7369,1.29154 -1.90857,3.58241 -3.51368,6.89063 -1.60511,3.31018 -3.35487,6.93763 -5.23632,10.88867 -1.88341,3.95105 -3.7437,7.90051 -5.582035,11.85156 -1.838334,3.94713 -3.308724,7.21189 -4.410156,9.78321 -0.736902,1.92652 -1.745592,4.33774 -3.03125,7.23242 -1.287618,2.892725 -2.66489,6.017795 -4.132813,9.371085 -1.469883,3.35525 -2.942233,6.84302 -4.410156,10.47266 -1.469883,3.63355 -2.804509,7.09803 -3.996094,10.40625 -0.186185,-1.28566 -0.345233,-2.59504 -0.482422,-3.92969 -0.135233,-1.33073 -0.203125,-2.77393 -0.203125,-4.33984 -0.188145,-2.93977 -0.120249,-6.63707 0.203125,-11.09375 0.321415,-4.45277 0.688036,-9.02496 1.101563,-13.708985 0.413527,-4.68403 0.803425,-9.16113 1.171875,-13.43359 0.368447,-4.26854 0.504212,-7.69432 0.414062,-10.26563 0,-1.93045 -0.04461,-4.0875 -0.136718,-6.47851 -0.08819,-2.01864 -0.161958,-4.36196 -0.205078,-7.02735 -0.05096,-2.66343 -0.159526,-5.51109 -0.34375,-8.54297 0,-0.73494 -0.09311,-1.40029 -0.279297,-2 -0.184225,-0.59383 -0.550847,-1.07686 -1.101563,-1.44531 -0.413037,-0.2749 -0.968832,-0.42172 -1.666016,-0.43945 z m 88.679687,40.64062 c -0.33342,-0.0118 -0.78709,-0.007 -1.36133,0.0156 -1.15043,0.0451 -2.41323,0.18868 -3.79101,0.41406 -1.37777,0.2293 -2.71044,0.52804 -3.9961,0.89649 -1.28761,0.36649 -2.16054,0.82623 -2.61914,1.37695 -1.46988,1.83833 -2.77924,4.64137 -3.93359,8.41211 -1.15042,3.770735 -13.84709,56.735655 -14.58203,60.915955 -0.73691,4.1843 -1.23734,8.2676 -1.51368,12.2637 -0.27634,3.9961 -0.27634,7.1426 0,9.4395 0.0901,1.5659 0.55185,3.0556 1.37891,4.4785 0.82705,1.4228 1.85903,2.6623 3.09961,3.7187 1.23666,1.0563 2.61786,1.8809 4.13086,2.4825 1.51496,0.5978 3.05128,0.8498 4.61523,0.7578 1.92653,-0.092 4.43085,-1.2852 7.50977,-3.582 3.07695,-2.293 6.21944,-5.0767 9.4375,-8.3379 3.21807,-3.2572 6.25001,-6.6597 9.09766,-10.1973 2.84569,-3.5375 5.00668,-6.5928 6.47656,-9.1641 0.64087,-1.1034 0.94158,-2.0674 0.89648,-2.8945 -0.051,-0.827 -0.32249,-1.4225 -0.82617,-1.791 -0.50172,-0.3625 -1.15163,-0.413 -1.92969,-0.1367 -0.77806,0.2764 -1.53849,0.8719 -2.27343,1.791 -1.19354,1.7463 -3.03448,4.0663 -5.51172,6.959 -2.47724,2.8928 -5.1639,5.7403 -8.06055,8.5429 -2.89077,2.8006 -5.73843,5.2138 -8.54102,7.2344 -2.80649,2.0206 -5.1226,3.0313 -6.96093,3.0313 -0.64087,0 -1.2403,-0.2057 -1.79102,-0.6192 -0.54876,-0.4136 -1.05507,-1.1719 -1.51367,-2.2734 -0.46053,-0.9191 -0.59829,-2.2499 -0.41211,-3.9961 0.18031,-1.7462 0.52366,-3.6065 1.0293,-5.5821 0.50564,-1.9755 1.08179,-3.9967 1.72461,-6.0644 0.63891,-2.0676 1.19373,-3.926 1.65429,-5.5801 0.46057,-1.6561 12.90897,-52.78982 13.82813,-55.40818 0.91721,-2.61835 1.79014,-5.161395 2.61719,-7.646475 0.82706,-2.48117 1.5196,-4.63628 2.06836,-6.47657 0.55463,-1.83834 0.7816,-2.80438 0.6914,-2.89648 -0.0931,-0.0441 -0.30525,-0.0722 -0.63867,-0.084 z"
     style="color:#000000;font-style:normal;font-variant:normal;font-weight:normal;font-stretch:normal;font-size:medium;line-height:normal;font-family:sans-serif;text-indent:0;text-align:start;text-decoration:none;text-decoration-line:none;text-decoration-style:solid;text-decoration-color:#000000;letter-spacing:normal;word-spacing:normal;text-transform:none;direction:ltr;block-progression:tb;writing-mode:lr-tb;baseline-shift:baseline;text-anchor:start;white-space:normal;clip-rule:nonzero;display:inline;overflow:visible;visibility:visible;opacity:1;isolation:auto;mix-blend-mode:normal;color-interpolation:sRGB;color-interpolation-filters:linearRGB;solid-color:#000000;solid-opacity:1;fill:#000000;fill-opacity:1;fill-rule:evenodd;stroke:none;stroke-width:3;stroke-linecap:butt;stroke-linejoin:miter;stroke-miterlimit:4;stroke-dasharray:none;stroke-dashoffset:10.67000008;stroke-opacity:1;marker:none;color-rendering:auto;image-rendering:auto;shape-rendering:auto;text-rendering:auto;enable-background:accumulate" />
</svg>
