<?xml version="1.0" encoding="UTF-8" standalone="no"?>
<!-- Created with Inkscape (http://www.inkscape.org/) -->

<svg
   xmlns:dc="http://purl.org/dc/elements/1.1/"
   xmlns:cc="http://creativecommons.org/ns#"
   xmlns:rdf="http://www.w3.org/1999/02/22-rdf-syntax-ns#"
   xmlns:svg="http://www.w3.org/2000/svg"
   xmlns="http://www.w3.org/2000/svg"
   xmlns:sodipodi="http://sodipodi.sourceforge.net/DTD/sodipodi-0.dtd"
   xmlns:inkscape="http://www.inkscape.org/namespaces/inkscape"
   width="200"
   height="200"
   viewBox="0 0 199.99999 200"
   id="svg4184"
   version="1.1"
   inkscape:version="0.91 r13725"
   sodipodi:docname="ml.svg">
  <defs
     id="defs4186" />
  <sodipodi:namedview
     id="base"
     pagecolor="#ffffff"
     bordercolor="#666666"
     borderopacity="1.0"
     inkscape:pageopacity="0.0"
     inkscape:pageshadow="2"
     inkscape:zoom="0.35"
     inkscape:cx="-282.14286"
     inkscape:cy="520"
     inkscape:document-units="px"
     inkscape:current-layer="layer1"
     showgrid="false"
     units="px"
     inkscape:window-width="1920"
     inkscape:window-height="1099"
     inkscape:window-x="0"
     inkscape:window-y="0"
     inkscape:window-maximized="1" />
  <metadata
     id="metadata4189">
    <rdf:RDF>
      <cc:Work
         rdf:about="">
        <dc:format>image/svg+xml</dc:format>
        <dc:type
           rdf:resource="http://purl.org/dc/dcmitype/StillImage" />
        <dc:title></dc:title>
      </cc:Work>
    </rdf:RDF>
  </metadata>
  <g
     inkscape:label="Layer 1"
     inkscape:groupmode="layer"
     id="layer1"
     transform="translate(0,-852.36216)">
    <g
       id="g4273"
       transform="matrix(1.959844,0,0,1.959844,-290.77855,-438.53256)"
       inkscape:export-xdpi="299.85611"
       inkscape:export-ydpi="299.85611">
      <g
         transform="translate(-43.589235,-12)"
         id="g4187">
        <path
           sodipodi:nodetypes="cccsssssscsacsc"
           inkscape:connector-curvature="0"
           id="path4159"
           d="m 243.32409,674.97427 c -2.66852,0.058 -5.34607,0.3349 -8.00782,0.81054 -16.0679,2.38177 -29.63174,12.43944 -36.86523,26.32032 -5.59042,10.06062 -7.6759,21.66822 -5.84789,32.83395 0.18417,1.12496 0.19423,4.39969 0.67211,3.3594 l 1.99273,-4.33793 c 1.66219,-3.6184 0.68891,-3.56734 0.68891,-7.74214 0,-26.55774 21.03014,-48.0625 47,-48.0625 25.96985,0 47,21.50476 47,48.0625 0,5.75435 -0.98984,11.27006 -2.80078,16.38281 -0.56579,1.43713 -2.07751,3.10709 -1.0419,4.23702 0,0 0.87504,0.34748 1.29061,0.21511 0.50099,-0.15957 1.11931,-1.11141 1.11931,-1.11141 8.03846,-15.89267 7.42589,-34.37297 -3.09068,-49.71572 -9.72496,-14.18786 -25.73884,-21.60812 -42.10937,-21.25195 z"
           style="color:#000000;font-style:normal;font-variant:normal;font-weight:normal;font-stretch:normal;font-size:medium;line-height:normal;font-family:sans-serif;text-indent:0;text-align:start;text-decoration:none;text-decoration-line:none;text-decoration-style:solid;text-decoration-color:#000000;letter-spacing:normal;word-spacing:normal;text-transform:none;direction:ltr;block-progression:tb;writing-mode:lr-tb;baseline-shift:baseline;text-anchor:start;white-space:normal;clip-rule:nonzero;display:inline;overflow:visible;visibility:visible;opacity:1;isolation:auto;mix-blend-mode:normal;color-interpolation:sRGB;color-interpolation-filters:linearRGB;solid-color:#000000;solid-opacity:1;fill:#000000;fill-opacity:1;fill-rule:evenodd;stroke:none;stroke-width:3;stroke-linecap:butt;stroke-linejoin:miter;stroke-miterlimit:4;stroke-dasharray:none;stroke-dashoffset:10.67000008;stroke-opacity:1;marker:none;color-rendering:auto;image-rendering:auto;shape-rendering:auto;text-rendering:auto;enable-background:accumulate" />
      </g>
      <path
         inkscape:connector-curvature="0"
         id="path37"
         d="m 165.22342,747.56786 c -1.828,0.046 -3.34,-0.281 -4.535,-0.984 -1.195,-0.703 -2.133,-1.723 -2.812,-3.059 -0.679,-1.336 -1.112,-2.953 -1.301,-4.853 -0.187,-1.897 -0.187,-3.973 0,-6.223 0.235,-1.733 0.657,-3.539 1.267,-5.414 0.517,-1.593 1.301,-3.351 2.354,-5.272 1.055,-1.923 2.473,-3.798 4.254,-5.625 0.375,0.095 0.68,0.199 0.914,0.315 0.234,0.117 0.422,0.246 0.562,0.387 0.141,0.188 0.233,0.353 0.28,0.492 0.095,0.518 -0.047,1.103 -0.422,1.758 -0.376,0.657 -0.75,1.36 -1.125,2.109 -1.03,2.156 -1.804,4.195 -2.319,6.117 -0.517,1.923 -0.845,3.703 -0.984,5.344 -0.094,1.406 -0.081,2.683 0.035,3.832 0.117,1.148 0.293,2.133 0.527,2.953 0.234,0.819 0.491,1.452 0.772,1.897 0.281,0.445 0.539,0.669 0.773,0.669 0.233,0 0.479,-0.165 0.737,-0.492 0.258,-0.328 0.503,-0.729 0.738,-1.195 0.281,-0.469 0.608,-1.185 0.984,-2.145 0.375,-0.962 0.772,-2.074 1.194,-3.341 0.423,-1.266 0.832,-2.637 1.23,-4.112 0.396,-1.478 0.762,-2.964 1.09,-4.465 0.656,-2.999 1.359,-6.388 2.109,-10.16 0.749,-3.772 1.852,-7.724 3.305,-11.849 0.468,-1.732 1.055,-3.632 1.758,-5.694 0.562,-1.781 1.276,-3.855 2.146,-6.224 0.866,-2.365 1.862,-4.933 2.987,-7.698 0,-0.234 0.199,-0.457 0.599,-0.669 0.396,-0.211 0.854,-0.433 1.371,-0.668 0.562,-0.233 1.194,-0.468 1.897,-0.702 0.938,-0.327 1.676,-0.517 2.215,-0.562 0.538,-0.046 0.949,0.024 1.23,0.211 0.281,0.188 0.468,0.435 0.562,0.738 0.095,0.306 0.142,0.645 0.142,1.02 0.094,1.547 0.15,3 0.176,4.359 0.022,1.36 0.059,2.556 0.104,3.586 0.047,1.22 0.07,2.32 0.07,3.305 0.046,1.312 -0.023,3.06 -0.211,5.238 -0.188,2.18 -0.387,4.465 -0.598,6.855 -0.211,2.39 -0.398,4.723 -0.562,6.995 -0.165,2.274 -0.2,4.16 -0.104,5.66 0,0.799 0.035,1.536 0.104,2.215 0.07,0.681 0.151,1.349 0.246,2.005 0.608,-1.688 1.289,-3.456 2.039,-5.31 0.749,-1.852 1.5,-3.632 2.25,-5.344 0.749,-1.711 1.452,-3.305 2.109,-4.781 0.656,-1.477 1.171,-2.707 1.547,-3.69 0.562,-1.312 1.312,-2.978 2.25,-4.992 0.938,-2.016 1.887,-4.031 2.848,-6.047 0.96,-2.016 1.853,-3.867 2.672,-5.556 0.819,-1.688 1.417,-2.857 1.793,-3.516 0.281,-0.468 0.763,-0.89 1.441,-1.266 0.679,-0.375 1.406,-0.703 2.18,-0.984 0.774,-0.281 1.5,-0.48 2.181,-0.598 0.679,-0.116 1.136,-0.129 1.37,-0.035 0.608,0.141 1.043,0.328 1.302,0.562 0.257,0.235 0.409,0.398 0.457,0.492 0.094,0.188 0.164,0.504 0.211,0.949 0.046,0.446 0.022,1.137 -0.07,2.074 -0.095,1.125 -0.363,2.837 -0.809,5.133 -0.446,2.297 -0.984,4.911 -1.617,7.84 -0.633,2.93 -1.312,6.059 -2.039,9.387 -0.729,3.329 -1.418,6.6 -2.074,9.81 -0.657,3.211 -1.229,6.223 -1.723,9.035 -0.493,2.812 -0.81,5.18 -0.949,7.102 -0.095,2.155 0.046,4.054 0.422,5.695 0.142,0.703 0.353,1.382 0.633,2.039 0.281,0.655 0.656,1.229 1.125,1.723 0.468,0.492 1.03,0.854 1.688,1.09 0.656,0.234 1.43,0.305 2.32,0.211 -1.173,0.797 -2.32,1.382 -3.445,1.758 -1.125,0.375 -2.228,0.562 -3.305,0.562 -1.173,0.046 -2.204,-0.13 -3.095,-0.527 -0.891,-0.397 -1.642,-0.961 -2.25,-1.688 -0.608,-0.729 -1.055,-1.595 -1.336,-2.603 -0.281,-1.009 -0.376,-2.121 -0.281,-3.34 0.095,-1.125 0.397,-2.978 0.914,-5.555 0.517,-2.577 1.137,-5.495 1.863,-8.754 0.728,-3.259 1.522,-6.655 2.391,-10.195 0.867,-3.539 1.688,-6.866 2.462,-9.984 0.772,-3.116 1.44,-5.801 2.004,-8.051 0.562,-2.25 0.914,-3.727 1.055,-4.43 0.094,-0.562 0.176,-1.09 0.246,-1.582 0.07,-0.492 0.15,-0.925 0.246,-1.301 -0.469,0.938 -1.044,2.062 -1.724,3.375 -0.68,1.312 -1.396,2.719 -2.145,4.219 -0.75,1.501 -1.512,3.059 -2.285,4.676 -0.772,1.617 -1.512,3.176 -2.215,4.676 -1.172,2.438 -2.32,4.935 -3.445,7.488 -1.125,2.556 -2.134,4.981 -3.022,7.277 -0.892,2.297 -1.629,4.358 -2.215,6.188 -0.588,1.828 -0.927,3.234 -1.021,4.219 l 0,0.984 c 0,0.281 0.011,0.609 0.035,0.984 0.022,0.376 0.081,0.728 0.176,1.055 l -2.812,2.18 c -0.422,0.142 -0.785,0.257 -1.091,0.353 -0.306,0.094 -0.598,0.141 -0.879,0.141 -1.079,0 -1.897,-0.562 -2.461,-1.688 -0.562,-1.031 -1.079,-3.047 -1.547,-6.047 -0.469,-2.999 -0.608,-6.681 -0.422,-11.039 0.094,-2.155 0.246,-4.335 0.457,-6.539 0.211,-2.203 0.422,-4.312 0.633,-6.328 0.211,-2.016 0.41,-3.902 0.599,-5.66 0.187,-1.758 0.28,-3.271 0.28,-4.535 0.046,-0.938 0.023,-1.793 -0.069,-2.566 -0.096,-0.772 -0.188,-1.486 -0.281,-2.145 -0.422,1.079 -0.891,2.543 -1.406,4.395 -0.517,1.854 -1.055,3.902 -1.617,6.152 -0.562,2.25 -1.137,4.617 -1.723,7.103 -0.587,2.484 -1.149,4.876 -1.688,7.172 -0.538,2.297 -1.044,4.419 -1.512,6.362 -0.469,1.945 -0.844,3.506 -1.125,4.677 -0.469,1.875 -0.938,4.008 -1.406,6.397 -0.469,2.392 -1.055,4.651 -1.758,6.785 -0.703,2.133 -1.617,3.938 -2.742,5.414 -1.125,1.476 -2.573,2.241 -4.354,2.288 z" />
      <path
         inkscape:connector-curvature="0"
         id="path39"
         d="m 227.44742,704.13786 c 0.234,-0.281 0.679,-0.516 1.336,-0.703 0.656,-0.188 1.336,-0.34 2.039,-0.457 0.703,-0.115 1.347,-0.188 1.934,-0.211 0.586,-0.023 0.926,-0.01 1.021,0.035 0.046,0.047 -0.07,0.539 -0.353,1.477 -0.28,0.939 -0.633,2.039 -1.055,3.305 -0.422,1.268 -0.868,2.566 -1.336,3.902 -0.469,1.336 -6.82,27.426 -7.055,28.271 -0.235,0.844 -0.518,1.793 -0.844,2.848 -0.328,1.055 -0.622,2.086 -0.88,3.094 -0.258,1.008 -0.434,1.957 -0.526,2.848 -0.095,0.891 -0.024,1.57 0.211,2.039 0.234,0.562 0.492,0.949 0.772,1.16 0.281,0.211 0.587,0.316 0.914,0.316 0.938,0 2.12,-0.516 3.552,-1.547 1.43,-1.031 2.883,-2.262 4.358,-3.691 1.478,-1.43 2.849,-2.883 4.113,-4.359 1.264,-1.476 2.203,-2.66 2.812,-3.551 0.375,-0.469 0.763,-0.773 1.16,-0.914 0.397,-0.141 0.728,-0.115 0.984,0.07 0.257,0.188 0.396,0.492 0.422,0.914 0.023,0.422 -0.13,0.914 -0.457,1.477 -0.75,1.312 -1.853,2.871 -3.305,4.676 -1.453,1.805 -3,3.541 -4.642,5.203 -1.642,1.664 -3.245,3.084 -4.815,4.254 -1.571,1.172 -2.849,1.781 -3.832,1.828 -0.798,0.047 -1.582,-0.082 -2.355,-0.387 -0.772,-0.307 -1.477,-0.727 -2.108,-1.266 -0.633,-0.539 -1.16,-1.172 -1.582,-1.898 -0.422,-0.726 -0.657,-1.486 -0.703,-2.285 -0.141,-1.172 -0.141,-2.777 0,-4.816 0.141,-2.039 0.396,-4.123 0.772,-6.258 0.375,-2.133 6.854,-29.158 7.441,-31.082 0.589,-1.924 1.257,-3.354 2.007,-4.292 z" />
    </g>
  </g>
</svg>
